PathFileType	4	(X/Y/Z)	T1_P1_Vision_NoMovement_2_0-682.trc
DataRate	CameraRate	NumFrames	NumMarkers	Units	OrigDataRate	OrigDataStartFrame	OrigNumFrames
60	60	6	27	m	60	596	682
Frame#	Time	RHip			RKnee			RAnkle			RBigToe			RSmallToe			RHeel			LHip			LKnee			LAnkle			LBigToe			LSmallToe			LHeel			Neck			Head			Nose			RShoulder			RElbow			RWrist			RThumb			RIndex			RPinky			LShoulder			LElbow			LWrist			LThumb			LIndex			LPinky		
		X1	Y1	Z1	X2	Y2	Z2	X3	Y3	Z3	X4	Y4	Z4	X5	Y5	Z5	X6	Y6	Z6	X7	Y7	Z7	X8	Y8	Z8	X9	Y9	Z9	X10	Y10	Z10	X11	Y11	Z11	X12	Y12	Z12	X13	Y13	Z13	X14	Y14	Z14	X15	Y15	Z15	X16	Y16	Z16	X17	Y17	Z17	X18	Y18	Z18	X19	Y19	Z19	X20	Y20	Z20	X21	Y21	Z21	X22	Y22	Z22	X23	Y23	Z23	X24	Y24	Z24	X25	Y25	Z25	X26	Y26	Z26	X27	Y27	Z27
597	9.95	-66.7570778755312	3805.2513104773975	-550.0466048303208	280.0222535153398	3944.213067529713	-514.3420691732202	641.3948176361425	4154.81575041005	-532.3366728979987	694.792231922801	4014.6625078738703	-455.39631536342836	687.6936693126122	3966.9548851531913	-492.02477214722717	684.1658196767385	4195.34478508757	-537.7075408036803	-107.18478378383567	3904.444311579746	-364.9219503316373	235.8711575741729	4001.371544793858	-370.66082155095717	622.5354625503983	4259.723450114378	-459.9744016563497	666.9778930037014	3981.0041313259608	-342.9665377369757	675.3185115018406	4121.604409479874	-342.3236970902868	673.7220664381407	4323.916566325848	-500.08484101243823	-663.9772137698951	3695.2617835881447	-525.9047615752905	-901.6053386424488	3519.574791130448	-432.6845149479861	-763.6685588892489	3558.725221706653	-413.0571886500411	-559.8376279352956	3669.8936002510227	-665.86302496729	-279.9156675318547	3715.3713060100085	-695.4503807210949	-23.583258748417414	3701.6850999577823	-607.716110609445	85.93089404624303	3778.3682768924136	-559.743196815341	108.51820709645537	3796.8482093824923	-573.9531819322169	106.49589966408607	3790.5835028328806	-596.9767639189788	-616.160226496847	3800.3672900361007	-395.7081460955715	-385.7129734753206	3983.5224191957786	-346.2967093342408	-125.04245805624386	3933.397750157667	-257.6907059774837	11.274758785722497	3879.191144164212	-284.3810553264231	23.403831910066984	3843.1965188975923	-217.89351246062145	-1.0263740703174855	3973.6224123327606	-215.75880566891064
598	9.966666666666669	-66.65267566216225	3798.8219816760743	-548.4970694734546	278.45385985236135	3942.98732741113	-513.5412777964234	640.5885352836851	4153.667765017108	-532.106681574623	697.0664497746787	4021.7129988252495	-458.22787803964786	688.1512192795764	3972.66869972917	-494.65515466068234	685.2679717673302	4194.581131271462	-536.4816847029805	-106.42813305202955	3904.420834424704	-364.5414597780449	235.9408097340443	4001.8901835033244	-371.0241451885187	624.1654468723074	4259.360948495783	-459.9675213039974	666.7056512146479	3978.812050495148	-342.5254875465649	677.282187639857	4122.291540508549	-342.5478745274786	675.3319366523382	4323.913626439946	-499.8552870687313	-663.7646476628735	3693.27572209948	-523.4762253180039	-901.5999517636163	3519.5781295588317	-432.67528939210644	-763.6040966368528	3558.760843061567	-413.05660031830814	-559.840292647744	3669.9058768338655	-665.8532910338131	-279.0215996504909	3709.2758361522083	-693.8114879518383	-23.71346670570814	3697.814250705437	-606.5354335837475	85.72061682420019	3777.6928000073553	-557.8967241832479	108.70787954590341	3790.05159004492	-571.9806126512952	105.57914845114671	3783.229270733248	-594.3495477987759	-617.1294017395085	3801.311784995073	-396.6012531313918	-384.9439960567998	3983.7152800025992	-346.2930654101731	-125.02474230216855	3932.556252169354	-257.53789274057584	11.333861910387636	3880.3677553198863	-285.1776148679087	22.546297293587052	3843.4820352926863	-217.93453347230022	-1.0311983768345978	3973.679122112709	-215.76095537890444
599	9.983333333333333	-66.52100976456404	3796.753533836408	-549.0504022453816	278.0239438462425	3945.7801992584555	-514.0913025846968	639.0093737811208	4149.964190220172	-530.7158899940337	698.484385137031	4031.5198335619993	-461.97527166822994	687.6862845342689	3977.872095672111	-496.236947949122	684.5905334872684	4192.0194785645	-534.5603147530882	-106.4372584781521	3903.9464796598504	-364.01136543440913	235.985725971295	4001.7568930692046	-370.908832848304	625.6642998716839	4259.362284111213	-459.98082818630803	666.219098465235	3981.0912147979006	-343.0973713287338	677.2092578760856	4125.014314386947	-343.39120773077775	676.0471055117307	4323.689697603339	-499.75663218908346	-663.6781360433276	3691.8269781903327	-520.6313503539467	-901.595337912361	3519.5672210926077	-432.6559295640342	-764.0600222617907	3560.6097869769956	-413.49307206677474	-559.8521131647731	3669.930888199142	-665.8264921587878	-279.959831212993	3708.152162814084	-693.5698236522892	-24.202381529370697	3692.016365502632	-605.0853696767997	85.56220074687575	3777.5514777960675	-556.5948551451947	107.64408019498782	3783.461892613044	-570.4597364841161	103.89688725563042	3775.777401108795	-591.5808603287877	-617.2437574345776	3799.4573123931996	-395.33121820796873	-384.5480825249631	3983.8118429556607	-346.290090573382	-125.00014030383016	3932.464944137535	-257.5050069129223	10.32714961203553	3880.6000870887383	-285.49426392841895	21.947814097836428	3843.494138034953	-216.85965648378092	-1.0548940698636289	3973.6466527076873	-215.7118559235129
600	10.0	-66.38000488219356	3802.4072065126666	-552.8466256338563	278.60441995608977	3954.50027354063	-517.1315277213079	637.3291912419348	4144.574651331149	-528.1028082272187	698.149790547174	4039.661650400367	-464.0710572657554	686.0902896410506	3977.314546400192	-494.83781753065006	682.2741034883076	4187.476412844937	-533.1845380661853	-107.65130907810854	3903.2343366042305	-363.75986244886707	235.99091811013022	4001.6881940581575	-370.78841831145706	626.2875699099578	4263.002829828492	-462.62645071048297	665.9709422816619	3987.581398658791	-344.70223661482305	674.629862530691	4131.386925901235	-344.9495394941465	675.0995243736716	4323.752218762482	-500.20528211850564	-663.4660475311168	3689.745746245739	-518.0409901155056	-901.5927496988063	3519.5293327325303	-432.62446920530596	-765.2024824721273	3563.9436729823296	-414.3141469168089	-559.8674686100039	3669.9537131546026	-665.7930384907694	-281.651598719528	3711.2375137607314	-694.4510521481071	-25.004533297412802	3691.3566087837294	-605.0383517443939	85.73881775753702	3779.5903644145646	-558.0908601391396	105.86535600163924	3782.822973360313	-570.6942957495114	102.26915187399015	3773.2163104394726	-590.5157258299778	-616.5505005360986	3796.630191968873	-393.1879059738682	-384.9640745958054	3983.7339880641225	-346.320218319639	-124.93760197532708	3932.248482213299	-257.455767332478	9.059954058302296	3878.2898756269487	-284.05070449476455	21.499045812055652	3842.276404743794	-213.61716912688792	-1.130661844630232	3973.457460860929	-215.59709316085014
601	10.016666666666667	-66.23309454149387	3809.0704948201455	-557.0805562092999	279.24327113882725	3966.3664917484466	-522.5070376967207	636.4797702089156	4141.703091787649	-526.0934425362198	696.6065457470809	4043.0049939248206	-463.6035452619747	684.6737004370665	3971.1621886779762	-491.70586507822105	680.207255782549	4183.402634425163	-533.9254962747024	-108.96446212023022	3902.989626125111	-364.0657824787154	235.9167292119787	4001.8132932516405	-370.79914459547047	625.3058658491622	4268.639718108375	-466.76496333506003	665.7937154081292	3993.7494029338336	-346.4574293018827	671.5804957223462	4140.107502325343	-346.82867207004506	673.4868869572741	4325.637818742931	-501.96846619027576	-663.1622868490279	3687.6278463348144	-516.9042263381577	-901.5946296056868	3519.4785662814484	-432.59221353046627	-766.8160034285613	3568.1694857434372	-415.37301716953743	-559.8781720539299	3669.9672755071088	-665.7725104723721	-283.11305499399316	3713.3530435817956	-694.9887747727512	-25.464102753958308	3694.675731475614	-605.957967534008	86.30145941801314	3784.8045474463447	-562.7794046262444	104.53594888775244	3788.555116426898	-572.5004260573585	101.69028042531784	3776.084530988705	-591.1201507099083	-615.6260407782985	3795.145152959887	-391.92757133144323	-385.7473778398806	3983.6030715602947	-346.39659797860423	-124.9065370735453	3932.503366793632	-257.50952259204246	8.268186499832844	3875.0303093585344	-281.8742452136956	21.07010483314205	3839.8002216027785	-209.41328625982834	-1.257946541769742	3973.2134282834427	-215.48217560051478
602	10.033333333333331	-66.11115912876127	3809.585605091391	-558.4821938452019	279.44425424383013	3974.4967776643985	-527.7610416692639	637.0583940517165	4144.234567029825	-526.65488395771	694.9323380522923	4041.4912923646953	-461.4134014945677	684.4691268821265	3965.4764732221174	-489.66582250027454	679.4675838449901	4181.552173679734	-536.0052689115569	-109.30201253163384	3903.4049363779586	-364.6669735920485	235.7960501969878	4001.933472941098	-370.8819144434699	622.9549832951595	4272.282147703334	-469.12015780394825	665.6142357534623	3996.595420705732	-347.4373977714857	670.3496941503374	4147.255541064149	-348.2370901750309	672.6664907817456	4330.006595065547	-504.9641528133884	-662.9733221980529	3686.667137075129	-517.3295966830691	-901.5995369379543	3519.4424589454593	-432.57001036826864	-767.9728383112908	3571.9346451307247	-416.28233624724766	-559.8844261372685	3669.979501885629	-665.7765960275576	-284.3382754959987	3713.886087587828	-695.0332708987341	-25.09143352736077	3694.565118676022	-605.8377608832443	86.91872741155129	3791.425021460121	-567.964897032344	104.2001016409224	3795.124174106508	-574.3196125326344	102.01935379892988	3780.7791521874187	-591.9567854003142	-615.1568830954856	3794.9651205804394	-391.68829562039383	-386.2639957032318	3983.560685524167	-346.4894795861426	-125.13401896110385	3935.300738689678	-258.0113894149343	7.994700094416445	3873.0504222307245	-280.5307865370476	20.836009457946634	3839.1940469310375	-207.73971298664281	-1.3744847457501213	3973.154122562299	-215.47236618947238
